<svg width="372" height="92" viewBox="0 0 372 92" fill="none" xmlns="http://www.w3.org/2000/svg">
<path d="M35.1445 91.4326C30.053 91.4326 25.4066 90.6315 21.2053 89.0293C17.0039 87.4271 13.3901 85.2018 10.3637 82.3534C7.33727 79.5051 5.00517 76.1938 3.36736 72.4198C1.72955 68.6457 0.910645 64.5689 0.910645 60.1896C0.910645 55.3117 2.0856 50.0779 4.4355 44.4879C6.82101 38.898 10.061 33.6285 14.1556 28.6795L36.533 1.60221H57.522L31.5662 32.3646C32.6699 31.7949 33.8983 31.3677 35.2513 31.0828C36.6043 30.798 38.0462 30.6556 39.5772 30.6556C43.565 30.6556 47.25 31.4033 50.6325 32.8987C54.0149 34.3584 56.9523 36.4413 59.4446 39.1473C61.9725 41.8532 63.9308 45.0576 65.3194 48.7605C66.7435 52.4278 67.4556 56.4689 67.4556 60.8839C67.4556 66.9366 66.1027 72.2595 63.3967 76.8525C60.6908 81.4455 56.9167 85.0238 52.0745 87.5873C47.2322 90.1508 41.5889 91.4326 35.1445 91.4326ZM34.3434 77.0127C37.3698 77.0127 40.0757 76.3363 42.4612 74.9833C44.8467 73.6303 46.716 71.7789 48.0689 69.429C49.4575 67.0791 50.1518 64.4087 50.1518 61.4179C50.1518 58.3559 49.4575 55.6322 48.0689 53.2467C46.716 50.8612 44.8467 48.9741 42.4612 47.5855C40.1113 46.197 37.4766 45.5027 34.557 45.5027C31.6374 45.5027 28.9849 46.2148 26.5994 47.639C24.2139 49.0275 22.309 50.9324 20.8848 53.3535C19.4962 55.7746 18.802 58.4984 18.802 61.5247C18.802 64.4443 19.4428 67.0791 20.7246 69.429C22.042 71.7433 23.8578 73.5947 26.1721 74.9833C28.522 76.3363 31.2458 77.0127 34.3434 77.0127Z" fill="#FF7A00"/>
<path d="M113.722 91.4326C106.53 91.4326 100.21 89.51 94.7624 85.6647C89.3149 81.8194 85.0602 76.4609 81.9982 69.5892C78.9718 62.7175 77.4586 54.7599 77.4586 45.7163C77.4586 36.6371 78.9718 28.6795 81.9982 21.8434C85.0602 14.9717 89.3149 9.61324 94.7624 5.76795C100.21 1.92265 106.53 0 113.722 0C120.914 0 127.216 1.92265 132.628 5.76795C138.075 9.61324 142.312 14.9717 145.339 21.8434C148.401 28.6795 149.932 36.6371 149.932 45.7163C149.932 54.7599 148.401 62.7175 145.339 69.5892C142.312 76.4609 138.075 81.8194 132.628 85.6647C127.216 89.51 120.914 91.4326 113.722 91.4326ZM113.722 76.2116C117.425 76.2116 120.611 74.9833 123.282 72.5266C125.952 70.0699 128.017 66.5628 129.477 62.0054C130.937 57.4124 131.667 51.9827 131.667 45.7163C131.667 39.4143 130.937 33.9846 129.477 29.4272C128.017 24.8698 125.952 21.3628 123.282 18.906C120.611 16.4493 117.425 15.221 113.722 15.221C110.019 15.221 106.815 16.4493 104.109 18.906C101.438 21.3628 99.3732 24.8698 97.9134 29.4272C96.4536 33.9846 95.7237 39.4143 95.7237 45.7163C95.7237 51.9827 96.4536 57.4124 97.9134 62.0054C99.3732 66.5628 101.438 70.0699 104.109 72.5266C106.815 74.9833 110.019 76.2116 113.722 76.2116Z" fill="#FF7A00"/>
<path d="M198.005 91.4326C190.812 91.4326 184.493 89.51 179.045 85.6647C173.598 81.8194 169.343 76.4609 166.281 69.5892C163.255 62.7175 161.741 54.7599 161.741 45.7163C161.741 36.6371 163.255 28.6795 166.281 21.8434C169.343 14.9717 173.598 9.61324 179.045 5.76795C184.493 1.92265 190.812 0 198.005 0C205.197 0 211.499 1.92265 216.911 5.76795C222.358 9.61324 226.595 14.9717 229.622 21.8434C232.684 28.6795 234.214 36.6371 234.214 45.7163C234.214 54.7599 232.684 62.7175 229.622 69.5892C226.595 76.4609 222.358 81.8194 216.911 85.6647C211.499 89.51 205.197 91.4326 198.005 91.4326ZM198.005 76.2116C201.708 76.2116 204.894 74.9833 207.564 72.5266C210.235 70.0699 212.3 66.5628 213.76 62.0054C215.219 57.4124 215.949 51.9827 215.949 45.7163C215.949 39.4143 215.219 33.9846 213.76 29.4272C212.3 24.8698 210.235 21.3628 207.564 18.906C204.894 16.4493 201.708 15.221 198.005 15.221C194.302 15.221 191.097 16.4493 188.391 18.906C185.721 21.3628 183.656 24.8698 182.196 29.4272C180.736 33.9846 180.007 39.4143 180.007 45.7163C180.007 51.9827 180.736 57.4124 182.196 62.0054C183.656 66.5628 185.721 70.0699 188.391 72.5266C191.097 74.9833 194.302 76.2116 198.005 76.2116Z" fill="#FF7A00"/>
<path d="M260.494 73.673H253.334V91.033H247.374V73.673H240.214V69.193H260.494V73.673Z" fill="#FF7A00"/>
<path d="M264.524 91.033V69.193H270.484V77.633H273.364C275.604 77.633 277.444 77.873 278.884 78.353C280.324 78.8064 281.391 79.513 282.084 80.473C282.804 81.433 283.164 82.633 283.164 84.073C283.164 85.4864 282.831 86.713 282.164 87.753C281.524 88.793 280.497 89.6064 279.084 90.193C277.697 90.753 275.857 91.033 273.564 91.033H264.524ZM273.244 86.913C274.417 86.913 275.364 86.6997 276.084 86.273C276.831 85.8464 277.204 85.1397 277.204 84.153C277.204 83.2997 276.857 82.6864 276.164 82.313C275.497 81.9397 274.497 81.753 273.164 81.753H270.484V86.913H273.244ZM286.324 91.033V69.193H292.284V91.033H286.324Z" fill="#FF7A00"/>
<path d="M307.388 91.433C305.228 91.433 303.388 91.0464 301.868 90.273C300.348 89.473 299.188 88.2464 298.388 86.593C297.588 84.9397 297.188 82.8197 297.188 80.233C297.188 77.5664 297.642 75.393 298.548 73.713C299.455 72.033 300.708 70.793 302.308 69.993C303.935 69.193 305.802 68.793 307.908 68.793C309.402 68.793 310.695 68.9397 311.788 69.233C312.908 69.5264 313.882 69.873 314.708 70.273L312.948 74.873C312.015 74.4997 311.135 74.193 310.308 73.953C309.508 73.713 308.708 73.593 307.908 73.593C306.868 73.593 306.002 73.8464 305.308 74.353C304.615 74.833 304.095 75.5664 303.748 76.553C303.428 77.513 303.268 78.7264 303.268 80.193C303.268 81.633 303.442 82.833 303.788 83.793C304.162 84.7264 304.695 85.433 305.388 85.913C306.082 86.3664 306.922 86.593 307.908 86.593C309.162 86.593 310.268 86.433 311.228 86.113C312.188 85.7664 313.122 85.2997 314.028 84.713V89.793C313.122 90.3797 312.162 90.793 311.148 91.033C310.162 91.2997 308.908 91.433 307.388 91.433Z" fill="#FF7A00"/>
<path d="M352.88 69.193V91.033H347.32V80.313C347.32 79.2464 347.333 78.2064 347.36 77.193C347.413 76.1797 347.48 75.2464 347.56 74.393H347.44L341.4 91.033H336.92L330.8 74.353H330.64C330.746 75.233 330.813 76.1797 330.84 77.193C330.893 78.1797 330.92 79.273 330.92 80.473V91.033H325.36V69.193H333.8L339.24 83.993L344.76 69.193H352.88Z" fill="#FF7A00"/>
<path d="M364.209 73.417C363.025 73.417 361.941 73.213 360.957 72.805C359.973 72.397 359.141 71.825 358.461 71.089C357.781 70.353 357.305 69.485 357.033 68.485L360.633 66.781C360.689 67.421 360.865 67.989 361.161 68.485C361.465 68.973 361.877 69.357 362.397 69.637C362.925 69.909 363.533 70.045 364.221 70.045C365.181 70.045 365.945 69.781 366.513 69.253C367.089 68.725 367.377 68.025 367.377 67.153C367.377 66.529 367.237 65.973 366.957 65.485C366.677 64.989 366.297 64.601 365.817 64.321C365.345 64.033 364.817 63.889 364.233 63.889C363.897 63.889 363.609 63.937 363.369 64.033V61.441H364.269C364.789 61.441 365.257 61.313 365.673 61.057C366.097 60.793 366.433 60.445 366.681 60.013C366.937 59.581 367.065 59.117 367.065 58.621C367.065 58.133 366.937 57.693 366.681 57.301C366.433 56.909 366.097 56.597 365.673 56.365C365.249 56.133 364.773 56.017 364.245 56.017C363.717 56.017 363.225 56.137 362.769 56.377C362.321 56.617 361.949 56.945 361.653 57.361C361.357 57.777 361.169 58.257 361.089 58.801L358.005 57.361C358.229 56.465 358.641 55.681 359.241 55.009C359.841 54.329 360.577 53.805 361.449 53.437C362.329 53.061 363.285 52.873 364.317 52.873C365.525 52.873 366.601 53.121 367.545 53.617C368.497 54.113 369.245 54.789 369.789 55.645C370.333 56.493 370.605 57.461 370.605 58.549C370.605 59.109 370.521 59.633 370.353 60.121C370.193 60.609 369.961 61.053 369.657 61.453C369.353 61.853 368.985 62.197 368.553 62.485C369.113 62.781 369.597 63.157 370.005 63.613C370.413 64.069 370.725 64.593 370.941 65.185C371.157 65.769 371.265 66.421 371.265 67.141C371.265 68.341 370.969 69.417 370.377 70.369C369.785 71.313 368.957 72.057 367.893 72.601C366.837 73.145 365.609 73.417 364.209 73.417Z" fill="#FF7A00"/>
</svg>
