<svg width="357" height="92" viewBox="0 0 357 92" fill="none" xmlns="http://www.w3.org/2000/svg">
<path d="M0 89.7236L41.3903 16.7698H2.24309V1.60221H66.9723V6.72927L20.4014 89.7236H0Z" fill="#FF7A00"/>
<path d="M102.189 91.3258C97.4893 91.3258 93.0565 90.5959 88.8908 89.1361C84.725 87.6763 81.0934 85.5222 77.9958 82.6739C74.8982 79.8255 72.5839 76.3363 71.0529 72.2061L84.7785 65.5837C85.811 69.0017 87.8582 71.7433 90.9202 73.8083C94.0178 75.8734 97.6495 76.9059 101.815 76.9059C105.055 76.9059 107.832 76.2829 110.147 75.0367C112.497 73.7549 114.295 71.9747 115.541 69.696C116.823 67.4173 117.463 64.8004 117.463 61.8452C117.463 58.1779 116.502 55.0447 114.579 52.4456C112.692 49.8108 110.004 47.7992 106.515 46.4106C103.061 44.9864 98.9669 44.2743 94.2315 44.2743C90.9558 44.2743 87.8404 44.7194 84.8853 45.6095C81.9301 46.4996 79.1707 47.7992 76.6072 49.5082L84.1376 1.60221H129.106V16.7698H98.8779L96.2609 34.0202C104.379 32.2756 111.678 32.8452 118.158 35.7292C121.54 36.8686 124.46 38.631 126.916 41.0165C129.409 43.3664 131.331 46.2148 132.684 49.5616C134.073 52.9084 134.767 56.6469 134.767 60.7771C134.767 67.1147 133.325 72.58 130.441 77.173C127.557 81.7304 123.659 85.2374 118.745 87.6941C113.832 90.1152 108.313 91.3258 102.189 91.3258Z" fill="#FF7A00"/>
<path d="M182.894 91.4326C175.702 91.4326 169.382 89.51 163.935 85.6647C158.487 81.8194 154.233 76.4609 151.171 69.5892C148.144 62.7175 146.631 54.7599 146.631 45.7163C146.631 36.6371 148.144 28.6795 151.171 21.8434C154.233 14.9717 158.487 9.61324 163.935 5.76795C169.382 1.92265 175.702 0 182.894 0C190.087 0 196.389 1.92265 201.8 5.76795C207.248 9.61324 211.485 14.9717 214.511 21.8434C217.573 28.6795 219.104 36.6371 219.104 45.7163C219.104 54.7599 217.573 62.7175 214.511 69.5892C211.485 76.4609 207.248 81.8194 201.8 85.6647C196.389 89.51 190.087 91.4326 182.894 91.4326ZM182.894 76.2116C186.597 76.2116 189.784 74.9833 192.454 72.5266C195.125 70.0699 197.19 66.5628 198.649 62.0054C200.109 57.4124 200.839 51.9827 200.839 45.7163C200.839 39.4143 200.109 33.9846 198.649 29.4272C197.19 24.8698 195.125 21.3628 192.454 18.906C189.784 16.4493 186.597 15.221 182.894 15.221C179.192 15.221 175.987 16.4493 173.281 18.906C170.611 21.3628 168.546 24.8698 167.086 29.4272C165.626 33.9846 164.896 39.4143 164.896 45.7163C164.896 51.9827 165.626 57.4124 167.086 62.0054C168.546 66.5628 170.611 70.0699 173.281 72.5266C175.987 74.9833 179.192 76.2116 182.894 76.2116Z" fill="#FF7A00"/>
<path d="M245.384 73.673H238.224V91.033H232.264V73.673H225.104V69.193H245.384V73.673Z" fill="#FF7A00"/>
<path d="M249.414 91.033V69.193H255.374V77.633H258.254C260.494 77.633 262.334 77.873 263.774 78.353C265.214 78.8064 266.28 79.513 266.974 80.473C267.694 81.433 268.054 82.633 268.054 84.073C268.054 85.4864 267.72 86.713 267.054 87.753C266.414 88.793 265.387 89.6064 263.974 90.193C262.587 90.753 260.747 91.033 258.454 91.033H249.414ZM258.134 86.913C259.307 86.913 260.254 86.6997 260.974 86.273C261.72 85.8464 262.094 85.1397 262.094 84.153C262.094 83.2997 261.747 82.6864 261.054 82.313C260.387 81.9397 259.387 81.753 258.054 81.753H255.374V86.913H258.134ZM271.214 91.033V69.193H277.174V91.033H271.214Z" fill="#FF7A00"/>
<path d="M292.278 91.433C290.118 91.433 288.278 91.0464 286.758 90.273C285.238 89.473 284.078 88.2464 283.278 86.593C282.478 84.9397 282.078 82.8197 282.078 80.233C282.078 77.5664 282.531 75.393 283.438 73.713C284.345 72.033 285.598 70.793 287.198 69.993C288.825 69.193 290.691 68.793 292.798 68.793C294.291 68.793 295.585 68.9397 296.678 69.233C297.798 69.5264 298.771 69.873 299.598 70.273L297.838 74.873C296.905 74.4997 296.025 74.193 295.198 73.953C294.398 73.713 293.598 73.593 292.798 73.593C291.758 73.593 290.891 73.8464 290.198 74.353C289.505 74.833 288.985 75.5664 288.638 76.553C288.318 77.513 288.158 78.7264 288.158 80.193C288.158 81.633 288.331 82.833 288.678 83.793C289.051 84.7264 289.585 85.433 290.278 85.913C290.971 86.3664 291.811 86.593 292.798 86.593C294.051 86.593 295.158 86.433 296.118 86.113C297.078 85.7664 298.011 85.2997 298.918 84.713V89.793C298.011 90.3797 297.051 90.793 296.038 91.033C295.051 91.2997 293.798 91.433 292.278 91.433Z" fill="#FF7A00"/>
<path d="M337.77 69.193V91.033H332.21V80.313C332.21 79.2464 332.223 78.2064 332.25 77.193C332.303 76.1797 332.37 75.2464 332.45 74.393H332.33L326.29 91.033H321.81L315.69 74.353H315.53C315.636 75.233 315.703 76.1797 315.73 77.193C315.783 78.1797 315.81 79.273 315.81 80.473V91.033H310.25V69.193H318.69L324.13 83.993L329.65 69.193H337.77Z" fill="#FF7A00"/>
<path d="M349.099 73.417C347.915 73.417 346.831 73.213 345.847 72.805C344.863 72.397 344.031 71.825 343.351 71.089C342.671 70.353 342.195 69.485 341.923 68.485L345.523 66.781C345.579 67.421 345.755 67.989 346.051 68.485C346.355 68.973 346.767 69.357 347.287 69.637C347.815 69.909 348.423 70.045 349.111 70.045C350.071 70.045 350.835 69.781 351.403 69.253C351.979 68.725 352.267 68.025 352.267 67.153C352.267 66.529 352.127 65.973 351.847 65.485C351.567 64.989 351.187 64.601 350.707 64.321C350.235 64.033 349.707 63.889 349.123 63.889C348.787 63.889 348.499 63.937 348.259 64.033V61.441H349.159C349.679 61.441 350.147 61.313 350.563 61.057C350.987 60.793 351.323 60.445 351.571 60.013C351.827 59.581 351.955 59.117 351.955 58.621C351.955 58.133 351.827 57.693 351.571 57.301C351.323 56.909 350.987 56.597 350.563 56.365C350.139 56.133 349.663 56.017 349.135 56.017C348.607 56.017 348.115 56.137 347.659 56.377C347.211 56.617 346.839 56.945 346.543 57.361C346.247 57.777 346.059 58.257 345.979 58.801L342.895 57.361C343.119 56.465 343.531 55.681 344.131 55.009C344.731 54.329 345.467 53.805 346.339 53.437C347.219 53.061 348.175 52.873 349.207 52.873C350.415 52.873 351.491 53.121 352.435 53.617C353.387 54.113 354.135 54.789 354.679 55.645C355.223 56.493 355.495 57.461 355.495 58.549C355.495 59.109 355.411 59.633 355.243 60.121C355.083 60.609 354.851 61.053 354.547 61.453C354.243 61.853 353.875 62.197 353.443 62.485C354.003 62.781 354.487 63.157 354.895 63.613C355.303 64.069 355.615 64.593 355.831 65.185C356.047 65.769 356.155 66.421 356.155 67.141C356.155 68.341 355.859 69.417 355.267 70.369C354.675 71.313 353.847 72.057 352.783 72.601C351.727 73.145 350.499 73.417 349.099 73.417Z" fill="#FF7A00"/>
</svg>
