<svg width="44" height="26" viewBox="0 0 44 26" fill="none" xmlns="http://www.w3.org/2000/svg">
<path d="M18.9853 25H6.32353H3.30882L1.5 22.4054V19.1622L3.30882 15.9189L6.92647 13.3243L9.94118 10.7297H11.75M18.9853 25L20.1912 21.7568L19.5882 15.2703L18.0378 13.973M18.9853 25H23.8088M18.0378 13.973L14.1618 10.7297H11.75M18.0378 13.973L23.2059 11.3784C23.5328 11.437 23.9572 11.5115 24.4118 11.589M23.8088 25C24.8137 24.1351 26.9441 22.4054 27.4265 22.4054C27.9088 22.4054 31.6471 21.5405 33.4559 21.1081V19.4865M23.8088 25H42.5L40.0882 19.8108L38.0784 18.5135M33.4559 19.4865V17.8649L31.0441 13.973C30.0392 13.3243 27.9088 12.027 27.4265 12.027C27.0749 12.027 25.6341 11.7973 24.4118 11.589M33.4559 19.4865L37.0735 17.8649L38.0784 18.5135M38.0784 18.5135L37.0735 13.973L32.8529 8.13513H29.2353M24.4118 11.589L27.4265 8.13513H29.2353M29.2353 8.13513L26.8235 4.24324L22.6029 1H18.0378C16.3438 1.64865 12.9559 3.07568 12.9559 3.59459C12.9559 4.11351 12.152 8.56757 11.75 10.7297" stroke="white" stroke-width="1.5" stroke-linejoin="round"/>
</svg>
