<svg width="36" height="37" viewBox="0 0 36 37" fill="none" xmlns="http://www.w3.org/2000/svg">
<path d="M33 18.9434V14.4434C33 6.94336 30 3.94336 22.5 3.94336H13.5C6 3.94336 3 6.94336 3 14.4434V23.4434C3 30.9434 6 33.9434 13.5 33.9434H18" stroke="white" stroke-width="2" stroke-linecap="round" stroke-linejoin="round"/>
<path d="M31.4395 27.7031L28.9945 28.5281C28.3195 28.7531 27.7795 29.2781 27.5545 29.9681L26.7295 32.4131C26.0245 34.5281 23.0545 34.4831 22.3945 32.3681L19.6195 23.4431C19.0795 21.6731 20.7145 20.0231 22.4695 20.5781L31.4095 23.3531C33.5095 24.0131 33.5395 26.9981 31.4395 27.7031Z" stroke="white" stroke-width="2" stroke-linecap="round" stroke-linejoin="round"/>
</svg>
