<svg width="29" height="25" viewBox="0 0 29 25" fill="none" xmlns="http://www.w3.org/2000/svg">
<path d="M0.459101 11.5582C3.4237 9.92528 6.73298 8.56234 9.82501 7.19247C15.1445 4.94873 20.4851 2.74388 25.8797 0.691191C26.9292 0.341454 28.8151 -0.000526756 29 1.55483C28.8987 3.75651 28.4822 5.9453 28.1965 8.13409C27.4713 12.9474 26.6331 17.7443 25.8158 22.5418C25.5342 24.1399 23.5323 24.9671 22.2514 23.9444C19.1732 21.8652 16.0712 19.8061 13.0322 17.6786C12.0367 16.6671 12.9598 15.2144 13.8489 14.4921C16.3843 11.9935 19.0731 9.8706 21.476 7.24287C22.1241 5.67771 20.209 6.99677 19.5773 7.40098C16.1063 9.79286 12.7203 12.3308 9.06087 14.4329C7.19162 15.4619 5.01297 14.5826 3.14457 14.0084C1.46934 13.3148 -0.985538 12.616 0.458932 11.5584L0.459101 11.5582Z" fill="white"/>
</svg>
