<svg width="24" height="25" viewBox="0 0 24 25" fill="none" xmlns="http://www.w3.org/2000/svg">
<path d="M0 24.3945L1.69627 18.2348C0.647564 16.4268 0.0974211 14.3793 0.103152 12.2862C0.103152 5.72723 5.46704 0.394531 12.0516 0.394531C15.2493 0.394531 18.2521 1.63217 20.5043 3.87932C22.7622 6.12647 24.0057 9.11506 24 12.2919C24 18.8508 18.6361 24.1835 12.0458 24.1835H12.0401C10.0401 24.1835 8.07449 23.6816 6.32664 22.7348L0 24.3945ZM6.63037 20.5846L6.9914 20.8014C8.51575 21.7025 10.2636 22.1759 12.0458 22.1816H12.0516C17.5243 22.1816 21.9828 17.75 21.9828 12.2976C21.9828 9.65689 20.9513 7.1759 19.0773 5.30518C17.2034 3.43446 14.7049 2.40784 12.0516 2.40784C6.57879 2.40214 2.12034 6.83369 2.12034 12.2862C2.12034 14.1512 2.64183 15.9706 3.63896 17.5447L3.87392 17.9211L2.87106 21.5656L6.63037 20.5846Z" fill="white"/>
<path d="M0.418274 23.9778L2.05724 18.0292C1.04292 16.2896 0.509964 14.3105 0.509964 12.2915C0.515695 5.96074 5.69047 0.810547 12.0515 0.810547C15.1403 0.810547 18.0343 2.00827 20.212 4.17557C22.3896 6.34287 23.5873 9.2288 23.5873 12.2972C23.5873 18.628 18.4068 23.7782 12.0515 23.7782H12.0458C10.1145 23.7782 8.21769 23.2934 6.53288 22.3809L0.418274 23.9778Z" fill="black"/>
<path d="M0 24.3945L1.69627 18.2348C0.647564 16.4268 0.0974211 14.3793 0.103152 12.2862C0.103152 5.72723 5.46704 0.394531 12.0516 0.394531C15.2493 0.394531 18.2521 1.63217 20.5043 3.87932C22.7622 6.12647 24.0057 9.11506 24 12.2919C24 18.8508 18.6361 24.1835 12.0458 24.1835H12.0401C10.0401 24.1835 8.07449 23.6816 6.32664 22.7348L0 24.3945ZM6.63037 20.5846L6.9914 20.8014C8.51575 21.7025 10.2636 22.1759 12.0458 22.1816H12.0516C17.5243 22.1816 21.9828 17.75 21.9828 12.2976C21.9828 9.65689 20.9513 7.1759 19.0773 5.30518C17.2034 3.43446 14.7049 2.40784 12.0516 2.40784C6.57879 2.40214 2.12034 6.83369 2.12034 12.2862C2.12034 14.1512 2.64183 15.9706 3.63896 17.5447L3.87392 17.9211L2.87106 21.5656L6.63037 20.5846Z" fill="white"/>
<path fill-rule="evenodd" clip-rule="evenodd" d="M9.06576 7.31296C8.84226 6.81676 8.60731 6.80535 8.39527 6.79965C8.22335 6.79395 8.02278 6.79395 7.82221 6.79395C7.62163 6.79395 7.30072 6.86809 7.02564 7.16467C6.75057 7.46125 5.98267 8.17988 5.98267 9.64566C5.98267 11.1057 7.0543 12.5202 7.20329 12.7198C7.35229 12.9194 9.27206 16.0164 12.3036 17.2084C14.8251 18.2008 15.3408 18.0012 15.8852 17.9498C16.4296 17.8985 17.6503 17.2312 17.9024 16.5354C18.1488 15.8396 18.1488 15.2464 18.0743 15.1209C17.9998 14.9955 17.7993 14.9213 17.5013 14.773C17.2033 14.6247 15.7362 13.9061 15.4612 13.8035C15.1861 13.7065 14.9855 13.6552 14.7907 13.9517C14.5901 14.2483 14.017 14.9156 13.8451 15.1152C13.6732 15.3149 13.4956 15.3377 13.1976 15.1894C12.8996 15.0411 11.9368 14.7274 10.7964 13.7122C9.90816 12.9251 9.30644 11.9498 9.13453 11.6533C8.96261 11.3567 9.11733 11.197 9.26633 11.0487C9.39814 10.9175 9.56432 10.7008 9.71332 10.5297C9.86232 10.3586 9.91389 10.2331 10.0113 10.0335C10.1087 9.83387 10.0629 9.66277 9.98839 9.51448C9.91389 9.37189 9.32937 7.90041 9.06576 7.31296Z" fill="white"/>
</svg>
