<svg width="149" height="92" viewBox="0 0 149 92" fill="none" xmlns="http://www.w3.org/2000/svg">
<path d="M31.6105 91.3258C26.9107 91.3258 22.4779 90.5959 18.3122 89.1361C14.1465 87.6763 10.5148 85.5222 7.4172 82.6739C4.3196 79.8255 2.0053 76.3363 0.474304 72.2061L14.1999 65.5837C15.2324 69.0017 17.2797 71.7433 20.3417 73.8083C23.4393 75.8734 27.0709 76.9059 31.2367 76.9059C34.4767 76.9059 37.2539 76.2829 39.5682 75.0367C41.9181 73.7549 43.7161 71.9747 44.9623 69.696C46.244 67.4173 46.8849 64.8004 46.8849 61.8452C46.8849 58.1779 45.9236 55.0447 44.0009 52.4456C42.1139 49.8108 39.4257 47.7992 35.9365 46.4106C32.4828 44.9864 28.3883 44.2743 23.6529 44.2743C20.3773 44.2743 17.2619 44.7194 14.3067 45.6095C11.3515 46.4996 8.59215 47.7992 6.02862 49.5082L13.559 1.60221H58.5276V16.7698H28.2993L25.6824 34.0202C33.8002 32.2756 41.0992 32.8452 47.5792 35.7292C50.9616 36.8686 53.8812 38.631 56.3379 41.0165C58.8302 43.3664 60.7529 46.2148 62.1059 49.5616C63.4944 52.9084 64.1887 56.6469 64.1887 60.7771C64.1887 67.1147 62.7467 72.58 59.8628 77.173C56.9788 81.7304 53.0801 85.2374 48.1667 87.6941C43.2532 90.1152 37.7345 91.3258 31.6105 91.3258Z" fill="#FF7A00"/>
<path d="M112.316 91.4326C105.124 91.4326 98.8039 89.51 93.3564 85.6647C87.9089 81.8194 83.6542 76.4609 80.5922 69.5892C77.5658 62.7175 76.0526 54.7599 76.0526 45.7163C76.0526 36.6371 77.5658 28.6795 80.5922 21.8434C83.6542 14.9717 87.9089 9.61324 93.3564 5.76795C98.8039 1.92265 105.124 0 112.316 0C119.508 0 125.81 1.92265 131.222 5.76795C136.669 9.61324 140.906 14.9717 143.933 21.8434C146.995 28.6795 148.526 36.6371 148.526 45.7163C148.526 54.7599 146.995 62.7175 143.933 69.5892C140.906 76.4609 136.669 81.8194 131.222 85.6647C125.81 89.51 119.508 91.4326 112.316 91.4326ZM112.316 76.2116C116.019 76.2116 119.205 74.9833 121.876 72.5266C124.546 70.0699 126.611 66.5628 128.071 62.0054C129.531 57.4124 130.261 51.9827 130.261 45.7163C130.261 39.4143 129.531 33.9846 128.071 29.4272C126.611 24.8698 124.546 21.3628 121.876 18.906C119.205 16.4493 116.019 15.221 112.316 15.221C108.613 15.221 105.409 16.4493 102.703 18.906C100.032 21.3628 97.9672 24.8698 96.5074 29.4272C95.0476 33.9846 94.3177 39.4143 94.3177 45.7163C94.3177 51.9827 95.0476 57.4124 96.5074 62.0054C97.9672 66.5628 100.032 70.0699 102.703 72.5266C105.409 74.9833 108.613 76.2116 112.316 76.2116Z" fill="#FF7A00"/>
</svg>
