<svg width="359" height="92" viewBox="0 0 359 92" fill="none" xmlns="http://www.w3.org/2000/svg">
<path d="M31.157 91.3258C26.4572 91.3258 22.0244 90.5959 17.8587 89.1361C13.6929 87.6763 10.0612 85.5222 6.96365 82.6739C3.86605 79.8255 1.55175 76.3363 0.020752 72.2061L13.7463 65.5837C14.7789 69.0017 16.8261 71.7433 19.8881 73.8083C22.9857 75.8734 26.6174 76.9059 30.7831 76.9059C34.0231 76.9059 36.8003 76.2829 39.1146 75.0367C41.4645 73.7549 43.2625 71.9747 44.5087 69.696C45.7905 67.4173 46.4313 64.8004 46.4313 61.8452C46.4313 58.1779 45.47 55.0447 43.5474 52.4456C41.6603 49.8108 38.9722 47.7992 35.4829 46.4106C32.0293 44.9864 27.9348 44.2743 23.1993 44.2743C19.9237 44.2743 16.8083 44.7194 13.8531 45.6095C10.898 46.4996 8.1386 47.7992 5.57507 49.5082L13.1054 1.60221H58.0741V16.7698H27.8457L25.2288 34.0202C33.3467 32.2756 40.6456 32.8452 47.1256 35.7292C50.5081 36.8686 53.4277 38.631 55.8844 41.0165C58.3767 43.3664 60.2993 46.2148 61.6523 49.5616C63.0409 52.9084 63.7352 56.6469 63.7352 60.7771C63.7352 67.1147 62.2932 72.58 59.4092 77.173C56.5253 81.7304 52.6265 85.2374 47.7131 87.6941C42.7997 90.1152 37.281 91.3258 31.157 91.3258Z" fill="#FF7A00"/>
<path d="M104.279 91.3258C99.5787 91.3258 95.146 90.5959 90.9802 89.1361C86.8145 87.6763 83.1828 85.5222 80.0852 82.6739C76.9876 79.8255 74.6733 76.3363 73.1423 72.2061L86.8679 65.5837C87.9004 69.0017 89.9477 71.7433 93.0097 73.8083C96.1073 75.8734 99.7389 76.9059 103.905 76.9059C107.145 76.9059 109.922 76.2829 112.236 75.0367C114.586 73.7549 116.384 71.9747 117.63 69.696C118.912 67.4173 119.553 64.8004 119.553 61.8452C119.553 58.1779 118.592 55.0447 116.669 52.4456C114.782 49.8108 112.094 47.7992 108.604 46.4106C105.151 44.9864 101.056 44.2743 96.3209 44.2743C93.0453 44.2743 89.9299 44.7194 86.9747 45.6095C84.0195 46.4996 81.2602 47.7992 78.6966 49.5082L86.227 1.60221H131.196V16.7698H100.967L98.3504 34.0202C106.468 32.2756 113.767 32.8452 120.247 35.7292C123.63 36.8686 126.549 38.631 129.006 41.0165C131.498 43.3664 133.421 46.2148 134.774 49.5616C136.162 52.9084 136.857 56.6469 136.857 60.7771C136.857 67.1147 135.415 72.58 132.531 77.173C129.647 81.7304 125.748 85.2374 120.835 87.6941C115.921 90.1152 110.403 91.3258 104.279 91.3258Z" fill="#FF7A00"/>
<path d="M184.984 91.4326C177.792 91.4326 171.472 89.51 166.024 85.6647C160.577 81.8194 156.322 76.4609 153.26 69.5892C150.234 62.7175 148.721 54.7599 148.721 45.7163C148.721 36.6371 150.234 28.6795 153.26 21.8434C156.322 14.9717 160.577 9.61324 166.024 5.76795C171.472 1.92265 177.792 0 184.984 0C192.176 0 198.478 1.92265 203.89 5.76795C209.337 9.61324 213.574 14.9717 216.601 21.8434C219.663 28.6795 221.194 36.6371 221.194 45.7163C221.194 54.7599 219.663 62.7175 216.601 69.5892C213.574 76.4609 209.337 81.8194 203.89 85.6647C198.478 89.51 192.176 91.4326 184.984 91.4326ZM184.984 76.2116C188.687 76.2116 191.873 74.9833 194.544 72.5266C197.214 70.0699 199.279 66.5628 200.739 62.0054C202.199 57.4124 202.929 51.9827 202.929 45.7163C202.929 39.4143 202.199 33.9846 200.739 29.4272C199.279 24.8698 197.214 21.3628 194.544 18.906C191.873 16.4493 188.687 15.221 184.984 15.221C181.281 15.221 178.077 16.4493 175.371 18.906C172.7 21.3628 170.635 24.8698 169.175 29.4272C167.716 33.9846 166.986 39.4143 166.986 45.7163C166.986 51.9827 167.716 57.4124 169.175 62.0054C170.635 66.5628 172.7 70.0699 175.371 72.5266C178.077 74.9833 181.281 76.2116 184.984 76.2116Z" fill="#FF7A00"/>
<path d="M247.474 73.673H240.314V91.033H234.354V73.673H227.194V69.193H247.474V73.673Z" fill="#FF7A00"/>
<path d="M251.503 91.033V69.193H257.463V77.633H260.343C262.583 77.633 264.423 77.873 265.863 78.353C267.303 78.8064 268.37 79.513 269.063 80.473C269.783 81.433 270.143 82.633 270.143 84.073C270.143 85.4864 269.81 86.713 269.143 87.753C268.503 88.793 267.476 89.6064 266.063 90.193C264.676 90.753 262.836 91.033 260.543 91.033H251.503ZM260.223 86.913C261.396 86.913 262.343 86.6997 263.063 86.273C263.81 85.8464 264.183 85.1397 264.183 84.153C264.183 83.2997 263.836 82.6864 263.143 82.313C262.476 81.9397 261.476 81.753 260.143 81.753H257.463V86.913H260.223ZM273.303 91.033V69.193H279.263V91.033H273.303Z" fill="#FF7A00"/>
<path d="M294.367 91.433C292.207 91.433 290.367 91.0464 288.847 90.273C287.327 89.473 286.167 88.2464 285.367 86.593C284.567 84.9397 284.167 82.8197 284.167 80.233C284.167 77.5664 284.621 75.393 285.527 73.713C286.434 72.033 287.687 70.793 289.287 69.993C290.914 69.193 292.781 68.793 294.887 68.793C296.381 68.793 297.674 68.9397 298.767 69.233C299.887 69.5264 300.861 69.873 301.687 70.273L299.927 74.873C298.994 74.4997 298.114 74.193 297.287 73.953C296.487 73.713 295.687 73.593 294.887 73.593C293.847 73.593 292.981 73.8464 292.287 74.353C291.594 74.833 291.074 75.5664 290.727 76.553C290.407 77.513 290.247 78.7264 290.247 80.193C290.247 81.633 290.421 82.833 290.767 83.793C291.141 84.7264 291.674 85.433 292.367 85.913C293.061 86.3664 293.901 86.593 294.887 86.593C296.141 86.593 297.247 86.433 298.207 86.113C299.167 85.7664 300.101 85.2997 301.007 84.713V89.793C300.101 90.3797 299.141 90.793 298.127 91.033C297.141 91.2997 295.887 91.433 294.367 91.433Z" fill="#FF7A00"/>
<path d="M339.859 69.193V91.033H334.299V80.313C334.299 79.2464 334.312 78.2064 334.339 77.193C334.392 76.1797 334.459 75.2464 334.539 74.393H334.419L328.379 91.033H323.899L317.779 74.353H317.619C317.726 75.233 317.792 76.1797 317.819 77.193C317.872 78.1797 317.899 79.273 317.899 80.473V91.033H312.339V69.193H320.779L326.219 83.993L331.739 69.193H339.859Z" fill="#FF7A00"/>
<path d="M351.188 73.417C350.004 73.417 348.92 73.213 347.936 72.805C346.952 72.397 346.12 71.825 345.44 71.089C344.76 70.353 344.284 69.485 344.012 68.485L347.612 66.781C347.668 67.421 347.844 67.989 348.14 68.485C348.444 68.973 348.856 69.357 349.376 69.637C349.904 69.909 350.512 70.045 351.2 70.045C352.16 70.045 352.924 69.781 353.492 69.253C354.068 68.725 354.356 68.025 354.356 67.153C354.356 66.529 354.216 65.973 353.936 65.485C353.656 64.989 353.276 64.601 352.796 64.321C352.324 64.033 351.796 63.889 351.212 63.889C350.876 63.889 350.588 63.937 350.348 64.033V61.441H351.248C351.768 61.441 352.236 61.313 352.652 61.057C353.076 60.793 353.412 60.445 353.66 60.013C353.916 59.581 354.044 59.117 354.044 58.621C354.044 58.133 353.916 57.693 353.66 57.301C353.412 56.909 353.076 56.597 352.652 56.365C352.228 56.133 351.752 56.017 351.224 56.017C350.696 56.017 350.204 56.137 349.748 56.377C349.3 56.617 348.928 56.945 348.632 57.361C348.336 57.777 348.148 58.257 348.068 58.801L344.984 57.361C345.208 56.465 345.62 55.681 346.22 55.009C346.82 54.329 347.556 53.805 348.428 53.437C349.308 53.061 350.264 52.873 351.296 52.873C352.504 52.873 353.58 53.121 354.524 53.617C355.476 54.113 356.224 54.789 356.768 55.645C357.312 56.493 357.584 57.461 357.584 58.549C357.584 59.109 357.5 59.633 357.332 60.121C357.172 60.609 356.94 61.053 356.636 61.453C356.332 61.853 355.964 62.197 355.532 62.485C356.092 62.781 356.576 63.157 356.984 63.613C357.392 64.069 357.704 64.593 357.92 65.185C358.136 65.769 358.244 66.421 358.244 67.141C358.244 68.341 357.948 69.417 357.356 70.369C356.764 71.313 355.936 72.057 354.872 72.601C353.816 73.145 352.588 73.417 351.188 73.417Z" fill="#FF7A00"/>
</svg>
