<svg width="50" height="50" viewBox="0 0 50 50" fill="none" xmlns="http://www.w3.org/2000/svg">
<path d="M24.8096 29.6117C22.4229 29.6117 20.3544 27.7023 20.3544 25.1565C20.3544 22.7698 22.2638 20.7014 24.8096 20.7014C27.1963 20.7014 29.2648 22.6107 29.2648 25.1565C29.2648 27.5432 27.1963 29.6117 24.8096 29.6117Z" fill="#707070"/>
<path fill-rule="evenodd" clip-rule="evenodd" d="M30.2194 14.3369C31.2954 14.3369 31.9166 14.5642 32.3714 14.7307C32.4546 14.7612 32.5323 14.7896 32.6061 14.8142C32.7389 14.8806 32.8648 14.9401 32.9852 14.997C33.4418 15.2127 33.8195 15.3912 34.1972 15.7689C34.6746 16.2462 34.9928 16.7236 35.1519 17.36C35.311 17.8373 35.4701 18.4738 35.6293 19.7467V30.5664C35.6293 31.6423 35.4019 32.2636 35.2354 32.7183C35.205 32.8014 35.1765 32.8793 35.1519 32.953C35.0855 33.0859 35.026 33.2118 34.9691 33.3322C34.7534 33.7887 34.575 34.1665 34.1972 34.5442C33.7199 35.0215 33.2426 35.3397 32.6061 35.4988C32.1288 35.658 31.4923 35.8171 30.2194 35.9762H19.3998C18.3238 35.9762 17.7026 35.7488 17.2478 35.5823C17.1647 35.5519 17.0868 35.5234 17.0131 35.4988C16.8803 35.4324 16.7544 35.373 16.634 35.3161C16.1774 35.1004 15.7997 34.9219 15.422 34.5442C14.9446 34.0668 14.6264 33.5895 14.4673 32.953C14.3082 32.4757 14.1491 31.8393 13.9899 30.5664V19.7467C13.9899 18.6707 14.2173 18.0495 14.3838 17.5947C14.4142 17.5115 14.4427 17.4338 14.4673 17.36C14.5337 17.2272 14.5932 17.1013 14.6501 16.9808C14.8658 16.5243 15.0442 16.1466 15.422 15.7689C15.8993 15.2915 16.3766 14.9733 17.0131 14.8142C17.4904 14.6551 18.1269 14.496 19.3998 14.3369H30.2194ZM24.8096 18.3147C20.9909 18.3147 17.9678 21.3378 17.9678 25.1565C17.9678 28.9752 20.9909 31.9984 24.8096 31.9984C28.6283 31.9984 31.6514 28.9752 31.6514 25.1565C31.6514 21.3378 28.6283 18.3147 24.8096 18.3147ZM33.4017 18.1556C33.4017 19.0343 32.6893 19.7467 31.8106 19.7467C30.9318 19.7467 30.2194 19.0343 30.2194 18.1556C30.2194 17.2768 30.9318 16.5644 31.8106 16.5644C32.6893 16.5644 33.4017 17.2768 33.4017 18.1556Z" fill="#707070"/>
<path fill-rule="evenodd" clip-rule="evenodd" d="M24.8095 49.9183C38.4851 49.9183 49.5714 38.8321 49.5714 25.1564C49.5714 11.4808 38.4851 0.394531 24.8095 0.394531C11.1339 0.394531 0.0476074 11.4808 0.0476074 25.1564C0.0476074 38.8321 11.1339 49.9183 24.8095 49.9183ZM19.3998 11.9502C17.9678 11.9502 17.0131 12.2684 16.2175 12.5866C15.422 12.9048 14.6264 13.3822 13.8308 14.1777C13.0353 14.9733 12.717 15.6098 12.2397 16.5644C11.9215 17.36 11.7624 18.3147 11.6032 19.7467V30.5664C11.6032 31.9984 11.9215 32.953 12.2397 33.7486C12.5579 34.5442 13.0353 35.3397 13.8308 36.1353C14.6264 36.9309 15.2628 37.2491 16.2175 37.7264C17.0131 38.0447 17.9678 38.2038 19.3998 38.3629H30.2194C31.6514 38.3629 32.6061 38.0447 33.4017 37.7264C34.1972 37.4082 34.9928 36.9309 35.7884 36.1353C36.5839 35.3397 36.9022 34.7033 37.3795 33.7486C37.6977 32.953 37.8568 31.9984 38.0159 30.5664V19.7467C38.0159 18.3147 37.6977 17.36 37.3795 16.5644C37.0613 15.7689 36.5839 14.9733 35.7884 14.1777C34.9928 13.3822 34.3564 13.064 33.4017 12.5866C32.6061 12.2684 31.6514 12.1093 30.2194 11.9502H19.3998Z" fill="#707070"/>
</svg>
