<svg width="24" height="27" viewBox="0 0 24 27" fill="none" xmlns="http://www.w3.org/2000/svg">
<path d="M17.6 8.59053V9.79053C17.6 10.7745 16.796 11.5905 15.8 11.5905H8.60002C7.61602 11.5905 6.80002 10.7865 6.80002 9.79053V8.59053C6.80002 7.60653 7.60402 6.79053 8.60002 6.79053H15.8C16.796 6.79053 17.6 7.59453 17.6 8.59053Z" fill="white"/>
<path d="M7.56337 16.2945H7.57723M12.1943 16.2945H12.2082M16.8252 16.2945H16.8391M7.56337 20.4945H7.57723M12.1943 20.4945H12.2082M16.8252 20.4945H16.8391M9.80002 25.8945H14.6C20.6 25.8945 23 23.4945 23 17.4945V10.2945C23 4.29453 20.6 1.89453 14.6 1.89453H9.80002C3.80002 1.89453 1.40002 4.29453 1.40002 10.2945V17.4945C1.40002 23.4945 3.80002 25.8945 9.80002 25.8945ZM17.6 8.59053V9.79053C17.6 10.7745 16.796 11.5905 15.8 11.5905H8.60002C7.61602 11.5905 6.80002 10.7865 6.80002 9.79053V8.59053C6.80002 7.60653 7.60402 6.79053 8.60002 6.79053H15.8C16.796 6.79053 17.6 7.59453 17.6 8.59053Z" stroke="white" stroke-width="2" stroke-linecap="round" stroke-linejoin="round"/>
</svg>
