<svg width="45" height="28" viewBox="0 0 45 28" fill="none" xmlns="http://www.w3.org/2000/svg">
<path d="M21 4H16.5C16.2239 4 16 3.77614 16 3.5V1.5C16 1.22386 16.2239 1 16.5 1H29C29.2761 1 29.5 1.22386 29.5 1.5V3.5C29.5 3.77614 29.2761 4 29 4H24.5M21 4V6.5M21 4H24.5M24.5 4V6.5M37 16V11C37 10.7239 36.7761 10.5 36.5 10.5H34M37 16H39.5C39.7761 16 40 15.7761 40 15.5V12.5C40 12.2239 40.2239 12 40.5 12H41.7929C41.9255 12 42.0527 12.0527 42.1464 12.1464L43.8536 13.8536C43.9473 13.9473 44 14.0745 44 14.2071V23.7929C44 23.9255 43.9473 24.0527 43.8536 24.1464L42.1464 25.8536C42.0527 25.9473 41.9255 26 41.7929 26H40.5C40.2239 26 40 25.7761 40 25.5V21C40 20.7239 39.7761 20.5 39.5 20.5H37M37 16V20.5M37 20.5V26.5C37 26.7761 36.7761 27 36.5 27H34M34 10.5H32.25C32.0926 10.5 31.9444 10.4259 31.85 10.3L29.15 6.7C29.0556 6.5741 28.9074 6.5 28.75 6.5H16.75C16.5926 6.5 16.4444 6.5741 16.35 6.7L13.65 10.3C13.5556 10.4259 13.4074 10.5 13.25 10.5H9.5C9.22386 10.5 9 10.7239 9 11V15M34 10.5V27M34 27H16.75C16.5926 27 16.4444 26.9259 16.35 26.8L13.65 23.2C13.5556 23.0741 13.4074 23 13.25 23H9.5C9.22386 23 9 22.7761 9 22.5V18M9 15H6M9 15V18M6 15V11C6 10.7239 5.77614 10.5 5.5 10.5H3.74031C3.58842 10.5 3.44476 10.569 3.34988 10.6877L1.60957 12.863C1.53864 12.9517 1.5 13.0619 1.5 13.1754V14.8333C1.5 14.9415 1.53509 15.0468 1.6 15.1333L2.9 16.8667C2.96491 16.9532 3 17.0585 3 17.1667V22.5C3 22.7761 3.22386 23 3.5 23H5.5C5.77614 23 6 22.7761 6 22.5V18M6 15V18M6 18H9M20.9549 18.0415L20.6079 22.2048C20.5699 22.661 21.1142 22.9242 21.4482 22.6111L27.5776 16.8648C27.9083 16.5548 27.6889 16 27.2356 16H24.5991C24.2872 16 24.0514 15.7175 24.1072 15.4106L24.7301 11.9844C24.8162 11.5108 24.2489 11.201 23.897 11.5295L18.4274 16.6345C18.0956 16.9441 18.3147 17.5 18.7685 17.5H20.4566C20.7491 17.5 20.9792 17.75 20.9549 18.0415Z" stroke="white" stroke-width="1.5" stroke-linejoin="round"/>
</svg>
