<svg width="51" height="50" viewBox="0 0 51 50" fill="none" xmlns="http://www.w3.org/2000/svg">
<path fill-rule="evenodd" clip-rule="evenodd" d="M50.0476 25.1564C50.0476 38.8321 38.9613 49.9183 25.2857 49.9183C11.6101 49.9183 0.523804 38.8321 0.523804 25.1564C0.523804 11.4808 11.6101 0.394531 25.2857 0.394531C38.9613 0.394531 50.0476 11.4808 50.0476 25.1564ZM17.1036 22.8878C14.6231 23.9708 12.0744 25.0836 9.74389 26.3673L9.74373 26.3675C8.5268 27.2585 10.1443 27.8887 11.6617 28.4798C11.9029 28.5738 12.1416 28.6668 12.366 28.7597C12.5527 28.8171 12.7426 28.8776 12.935 28.9389C14.6226 29.4766 16.5044 30.0761 18.1428 29.1742C20.8341 27.6282 23.374 25.8407 25.912 24.0547C26.7435 23.4695 27.5748 22.8845 28.4111 22.3081C28.4503 22.2831 28.4945 22.2544 28.5428 22.2231C29.2553 21.7612 30.8577 20.7226 30.265 22.1538C28.8634 23.6865 27.3622 25.0434 25.8527 26.4076C24.8355 27.327 23.8145 28.2497 22.8178 29.232C21.9498 29.9373 21.0484 31.3556 22.0204 32.3433C24.2592 33.9106 26.5331 35.4399 28.8055 36.9684C29.545 37.4657 30.2843 37.9629 31.0222 38.4613C32.2729 39.4599 34.2275 38.6522 34.5025 37.0918C34.6248 36.3739 34.7476 35.656 34.8704 34.9381C35.5488 30.9715 36.2275 27.0035 36.827 23.024C36.9085 22.3997 37.0009 21.7755 37.0933 21.1509C37.3173 19.6373 37.5415 18.1217 37.6116 16.5999C37.431 15.0812 35.5896 15.4151 34.5648 15.7566C29.2975 17.7609 24.0829 19.9137 18.8889 22.1046C18.3005 22.3652 17.7041 22.6256 17.1036 22.8878Z" fill="#707070"/>
</svg>
