<svg width="50" height="50" viewBox="0 0 50 50" fill="none" xmlns="http://www.w3.org/2000/svg">
<path fill-rule="evenodd" clip-rule="evenodd" d="M24.7619 49.9183C38.4375 49.9183 49.5238 38.8321 49.5238 25.1564C49.5238 11.4808 38.4375 0.394531 24.7619 0.394531C11.0863 0.394531 0 11.4808 0 25.1564C0 38.8321 11.0863 49.9183 24.7619 49.9183ZM9.9043 16.9026C10.1429 28.4968 16.2329 35.474 26.2706 35.474H26.8529V28.8411C30.5086 29.2122 33.2348 31.9453 34.3478 35.474H39.6186C38.1887 30.1952 34.4813 27.2765 32.1771 26.1615C34.4795 24.7825 37.7382 21.4393 38.5057 16.9026H33.7103C32.7042 20.5919 29.7109 23.9351 26.8511 24.2527V16.9026H21.9791V29.7706C19.0143 29.0284 15.1466 25.4194 14.9881 16.9026H9.9043Z" fill="#707070"/>
</svg>
