<svg width="50" height="49" viewBox="0 0 50 49" fill="none" xmlns="http://www.w3.org/2000/svg">
<path fill-rule="evenodd" clip-rule="evenodd" d="M25 48.8945C38.8071 48.8945 50 38.1494 50 24.8945C50 11.6397 38.8071 0.894531 25 0.894531C11.1929 0.894531 0 11.6397 0 24.8945C0 38.1494 11.1929 48.8945 25 48.8945ZM12.1203 31.9033L10 39.2949L17.9083 37.3033C20.0931 38.4394 22.5501 39.0417 25.0501 39.0417H25.0573C33.2951 39.0417 40 32.6425 40 24.7717C40.0071 20.9596 38.4527 17.3732 35.6303 14.6767C32.8152 11.9801 29.0616 10.4949 25.0645 10.4949C16.8338 10.4949 10.1289 16.8942 10.1289 24.7649C10.1218 27.2767 10.8095 29.7337 12.1203 31.9033ZM18.7392 34.9831L18.288 34.7231L13.5888 35.9002L14.8424 31.5269L14.5487 31.0752C13.3023 29.1862 12.6504 27.0029 12.6504 24.7649C12.6504 18.2219 18.2235 12.904 25.0645 12.9109C28.3811 12.9109 31.5043 14.1428 33.8467 16.3877C36.1891 18.6326 37.4785 21.6098 37.4785 24.7786C37.4785 31.3215 31.9054 36.6394 25.0645 36.6394H25.0573C22.8295 36.6326 20.6447 36.0645 18.7392 34.9831ZM20.4944 18.1808C20.7594 18.1877 21.0531 18.2014 21.3325 18.7968C21.5115 19.1797 21.8089 19.8758 22.0581 20.4591C22.2677 20.9496 22.4433 21.3605 22.4858 21.4386C22.5789 21.6166 22.6362 21.8219 22.5145 22.0614C22.5001 22.0897 22.4865 22.1168 22.4734 22.1428C22.3757 22.3373 22.3062 22.4758 22.142 22.6569C22.0747 22.731 22.0047 22.8122 21.9349 22.8932C21.8114 23.0366 21.6885 23.1791 21.5832 23.2797C21.397 23.4576 21.2036 23.6493 21.4185 24.0052C21.6334 24.3611 22.3855 25.5314 23.4958 26.4759C24.6895 27.496 25.7274 27.9259 26.2522 28.1432C26.3541 28.1854 26.4367 28.2196 26.4973 28.2485C26.8697 28.4265 27.0918 28.3991 27.3067 28.1595C27.5216 27.92 28.2379 27.1192 28.4887 26.7633C28.7322 26.4074 28.9829 26.469 29.3268 26.5854C29.6706 26.7086 31.5044 27.5709 31.8769 27.7489C31.9503 27.784 32.019 27.8156 32.0826 27.8449C32.3421 27.9643 32.5185 28.0455 32.5932 28.1664C32.6864 28.317 32.6864 29.0287 32.3783 29.8637C32.0632 30.6987 30.5374 31.4995 29.8569 31.5611C29.7918 31.5669 29.727 31.5745 29.6603 31.5822C29.03 31.6554 28.2301 31.7483 25.3798 30.6713C21.8681 29.3457 19.5499 26.057 19.0807 25.3914C19.0436 25.3388 19.0181 25.3026 19.0044 25.285L18.9965 25.2748C18.7832 25.0009 17.4786 23.3251 17.4786 21.596C17.4786 19.9419 18.3275 19.0807 18.7147 18.688C18.7392 18.6631 18.7619 18.6401 18.7824 18.6189C19.1262 18.263 19.5273 18.174 19.7781 18.174C20.0288 18.174 20.2795 18.174 20.4944 18.1808Z" fill="#707070"/>
</svg>
