<svg width="24" height="25" viewBox="0 0 24 25" fill="none" xmlns="http://www.w3.org/2000/svg">
<path d="M4.82667 11.2812C6.74667 15.0545 9.84 18.1345 13.6133 20.0679L16.5467 17.1345C16.9067 16.7745 17.44 16.6545 17.9067 16.8145C19.4 17.3079 21.0133 17.5745 22.6667 17.5745C23.4 17.5745 24 18.1745 24 18.9079V23.5612C24 24.2945 23.4 24.8945 22.6667 24.8945C10.1467 24.8945 0 14.7479 0 2.22786C0 1.49453 0.6 0.894531 1.33333 0.894531H6C6.73333 0.894531 7.33333 1.49453 7.33333 2.22786C7.33333 3.89453 7.6 5.49453 8.09333 6.98786C8.24 7.45453 8.13333 7.97453 7.76 8.34787L4.82667 11.2812Z" fill="white"/>
</svg>
